<mxfile host="app.diagrams.net" agent="Mozilla/5.0 (Windows NT 10.0; Win64; x64) AppleWebKit/537.36 (KHTML, like Gecko) Chrome/131.0.0.0 Safari/537.36 Edg/131.0.0.0" version="24.7.6">
  <diagram name="Página-1" id="o4mGQ7G2Gc80B0E34A2a">
    <mxGraphModel dx="1250" dy="794" grid="1" gridSize="10" guides="1" tooltips="1" connect="1" arrows="1" fold="1" page="1" pageScale="1" pageWidth="1654" pageHeight="1169" math="0" shadow="0">
      <root>
        <mxCell id="0" />
        <mxCell id="1" parent="0" />
        <mxCell id="zc22BTwSa1uG1xmWoCSC-1" value="Explorar uma caverna submersa." style="whiteSpace=wrap;html=1;aspect=fixed;" vertex="1" parent="1">
          <mxGeometry x="50" y="270" width="80" height="80" as="geometry" />
        </mxCell>
        <mxCell id="zc22BTwSa1uG1xmWoCSC-3" value="Permanecer perto do reino e explorar ao redor." style="whiteSpace=wrap;html=1;aspect=fixed;" vertex="1" parent="1">
          <mxGeometry x="50" y="840" width="80" height="80" as="geometry" />
        </mxCell>
        <mxCell id="zc22BTwSa1uG1xmWoCSC-5" value="&amp;nbsp;Ao entrar, você encontra uma caverna brilhante iluminada por plantas bioluminescentes. No fundo, uma criatura misteriosa o observa." style="ellipse;whiteSpace=wrap;html=1;fillColor=#e1d5e7;strokeColor=#9673a6;" vertex="1" parent="1">
          <mxGeometry x="180" y="250" width="190" height="120" as="geometry" />
        </mxCell>
        <mxCell id="zc22BTwSa1uG1xmWoCSC-6" value="Conversar com a criatura" style="whiteSpace=wrap;html=1;aspect=fixed;" vertex="1" parent="1">
          <mxGeometry x="400" y="119" width="80" height="80" as="geometry" />
        </mxCell>
        <mxCell id="zc22BTwSa1uG1xmWoCSC-7" value="Ignorar a criatura e explorar o fundo da caverna" style="whiteSpace=wrap;html=1;aspect=fixed;verticalAlign=middle;align=center;" vertex="1" parent="1">
          <mxGeometry x="400" y="440" width="80" height="80" as="geometry" />
        </mxCell>
        <mxCell id="zc22BTwSa1uG1xmWoCSC-9" value="Lá, você encontra baús fechados, mas também sinais de que um predador pode estar próximo." style="ellipse;whiteSpace=wrap;html=1;fillColor=#e1d5e7;strokeColor=#9673a6;" vertex="1" parent="1">
          <mxGeometry x="525" y="420" width="160" height="120" as="geometry" />
        </mxCell>
        <mxCell id="zc22BTwSa1uG1xmWoCSC-10" value="Abrir um dos baús e ver o que há dentro" style="whiteSpace=wrap;html=1;aspect=fixed;labelBackgroundColor=#FF8000;" vertex="1" parent="1">
          <mxGeometry x="740" y="550" width="120" height="120" as="geometry" />
        </mxCell>
        <mxCell id="zc22BTwSa1uG1xmWoCSC-11" value="Sair rapidamente antes que algo ruim aconteça." style="whiteSpace=wrap;html=1;aspect=fixed;labelBackgroundColor=#6666FF;" vertex="1" parent="1">
          <mxGeometry x="741" y="370" width="123" height="123" as="geometry" />
        </mxCell>
        <mxCell id="zc22BTwSa1uG1xmWoCSC-12" value="Ela se revela como um guardião de um tesouro antigo da caverna, mas para ganhá-lo, você deve derrotar o predador da caverna." style="ellipse;whiteSpace=wrap;html=1;fillColor=#e1d5e7;strokeColor=#9673a6;" vertex="1" parent="1">
          <mxGeometry x="520" y="80" width="170" height="160" as="geometry" />
        </mxCell>
        <mxCell id="zc22BTwSa1uG1xmWoCSC-13" value="Sai calmamente e continua sua jornada, sentindo que às vezes é melhor não interferir no que não entende completamente." style="whiteSpace=wrap;html=1;aspect=fixed;labelBackgroundColor=#6666FF;" vertex="1" parent="1">
          <mxGeometry x="737.5" width="130" height="130" as="geometry" />
        </mxCell>
        <mxCell id="zc22BTwSa1uG1xmWoCSC-14" value="Decide ir atrás do predador, iniciando uma nova jornada de perigos e surpresas." style="whiteSpace=wrap;html=1;aspect=fixed;labelBackgroundColor=#CC6600;" vertex="1" parent="1">
          <mxGeometry x="740" y="180" width="125" height="125" as="geometry" />
        </mxCell>
        <mxCell id="zc22BTwSa1uG1xmWoCSC-15" value="Ao abrir, o baú faz barulho e atrai o predador, obrigando você a fugir rapidamente, perdendo um artefato importante no processo." style="ellipse;whiteSpace=wrap;html=1;fillColor=#e1d5e7;strokeColor=#9673a6;" vertex="1" parent="1">
          <mxGeometry x="920" y="540" width="210" height="140" as="geometry" />
        </mxCell>
        <mxCell id="zc22BTwSa1uG1xmWoCSC-16" value="Continua fugindo até achar a saída da caverna." style="whiteSpace=wrap;html=1;aspect=fixed;labelBackgroundColor=#6666FF;" vertex="1" parent="1">
          <mxGeometry x="1190" y="480" width="123" height="123" as="geometry" />
        </mxCell>
        <mxCell id="zc22BTwSa1uG1xmWoCSC-17" value="Volta para tentar recuperar o objeto." style="whiteSpace=wrap;html=1;aspect=fixed;labelBackgroundColor=#CC6600;" vertex="1" parent="1">
          <mxGeometry x="1190" y="628.5" width="123" height="123" as="geometry" />
        </mxCell>
        <mxCell id="zc22BTwSa1uG1xmWoCSC-19" value="" style="endArrow=classic;html=1;rounded=0;" edge="1" parent="1" source="zc22BTwSa1uG1xmWoCSC-5" target="zc22BTwSa1uG1xmWoCSC-6">
          <mxGeometry width="50" height="50" relative="1" as="geometry">
            <mxPoint x="600" y="430" as="sourcePoint" />
            <mxPoint x="650" y="380" as="targetPoint" />
            <Array as="points">
              <mxPoint x="275" y="159" />
            </Array>
          </mxGeometry>
        </mxCell>
        <mxCell id="zc22BTwSa1uG1xmWoCSC-20" value="" style="endArrow=classic;html=1;rounded=0;" edge="1" parent="1" source="zc22BTwSa1uG1xmWoCSC-5" target="zc22BTwSa1uG1xmWoCSC-7">
          <mxGeometry width="50" height="50" relative="1" as="geometry">
            <mxPoint x="600" y="430" as="sourcePoint" />
            <mxPoint x="650" y="380" as="targetPoint" />
            <Array as="points">
              <mxPoint x="275" y="480" />
            </Array>
          </mxGeometry>
        </mxCell>
        <mxCell id="zc22BTwSa1uG1xmWoCSC-24" value="" style="endArrow=none;html=1;rounded=0;" edge="1" parent="1" source="zc22BTwSa1uG1xmWoCSC-6" target="zc22BTwSa1uG1xmWoCSC-12">
          <mxGeometry width="50" height="50" relative="1" as="geometry">
            <mxPoint x="600" y="430" as="sourcePoint" />
            <mxPoint x="650" y="380" as="targetPoint" />
          </mxGeometry>
        </mxCell>
        <mxCell id="zc22BTwSa1uG1xmWoCSC-25" value="" style="endArrow=classic;html=1;rounded=0;" edge="1" parent="1" source="zc22BTwSa1uG1xmWoCSC-12" target="zc22BTwSa1uG1xmWoCSC-13">
          <mxGeometry width="50" height="50" relative="1" as="geometry">
            <mxPoint x="600" y="430" as="sourcePoint" />
            <mxPoint x="650" y="380" as="targetPoint" />
          </mxGeometry>
        </mxCell>
        <mxCell id="zc22BTwSa1uG1xmWoCSC-26" value="" style="endArrow=classic;html=1;rounded=0;" edge="1" parent="1" source="zc22BTwSa1uG1xmWoCSC-12" target="zc22BTwSa1uG1xmWoCSC-14">
          <mxGeometry width="50" height="50" relative="1" as="geometry">
            <mxPoint x="600" y="430" as="sourcePoint" />
            <mxPoint x="650" y="380" as="targetPoint" />
          </mxGeometry>
        </mxCell>
        <mxCell id="zc22BTwSa1uG1xmWoCSC-28" value="" style="endArrow=none;html=1;rounded=0;" edge="1" parent="1" source="zc22BTwSa1uG1xmWoCSC-1" target="zc22BTwSa1uG1xmWoCSC-5">
          <mxGeometry width="50" height="50" relative="1" as="geometry">
            <mxPoint x="600" y="510" as="sourcePoint" />
            <mxPoint x="650" y="460" as="targetPoint" />
          </mxGeometry>
        </mxCell>
        <mxCell id="zc22BTwSa1uG1xmWoCSC-29" value="" style="endArrow=none;html=1;rounded=0;" edge="1" parent="1" source="zc22BTwSa1uG1xmWoCSC-7" target="zc22BTwSa1uG1xmWoCSC-9">
          <mxGeometry width="50" height="50" relative="1" as="geometry">
            <mxPoint x="600" y="510" as="sourcePoint" />
            <mxPoint x="650" y="460" as="targetPoint" />
          </mxGeometry>
        </mxCell>
        <mxCell id="zc22BTwSa1uG1xmWoCSC-30" value="" style="endArrow=classic;html=1;rounded=0;" edge="1" parent="1" source="zc22BTwSa1uG1xmWoCSC-9" target="zc22BTwSa1uG1xmWoCSC-11">
          <mxGeometry width="50" height="50" relative="1" as="geometry">
            <mxPoint x="600" y="510" as="sourcePoint" />
            <mxPoint x="650" y="460" as="targetPoint" />
          </mxGeometry>
        </mxCell>
        <mxCell id="zc22BTwSa1uG1xmWoCSC-31" value="" style="endArrow=classic;html=1;rounded=0;" edge="1" parent="1" source="zc22BTwSa1uG1xmWoCSC-9" target="zc22BTwSa1uG1xmWoCSC-10">
          <mxGeometry width="50" height="50" relative="1" as="geometry">
            <mxPoint x="600" y="510" as="sourcePoint" />
            <mxPoint x="650" y="460" as="targetPoint" />
          </mxGeometry>
        </mxCell>
        <mxCell id="zc22BTwSa1uG1xmWoCSC-32" value="" style="endArrow=none;html=1;rounded=0;" edge="1" parent="1" source="zc22BTwSa1uG1xmWoCSC-10" target="zc22BTwSa1uG1xmWoCSC-15">
          <mxGeometry width="50" height="50" relative="1" as="geometry">
            <mxPoint x="1010" y="440" as="sourcePoint" />
            <mxPoint x="1060" y="390" as="targetPoint" />
          </mxGeometry>
        </mxCell>
        <mxCell id="zc22BTwSa1uG1xmWoCSC-33" value="" style="endArrow=classic;html=1;rounded=0;" edge="1" parent="1" source="zc22BTwSa1uG1xmWoCSC-15" target="zc22BTwSa1uG1xmWoCSC-16">
          <mxGeometry width="50" height="50" relative="1" as="geometry">
            <mxPoint x="1010" y="440" as="sourcePoint" />
            <mxPoint x="1060" y="390" as="targetPoint" />
          </mxGeometry>
        </mxCell>
        <mxCell id="zc22BTwSa1uG1xmWoCSC-34" value="" style="endArrow=classic;html=1;rounded=0;" edge="1" parent="1" source="zc22BTwSa1uG1xmWoCSC-15" target="zc22BTwSa1uG1xmWoCSC-17">
          <mxGeometry width="50" height="50" relative="1" as="geometry">
            <mxPoint x="1010" y="440" as="sourcePoint" />
            <mxPoint x="1060" y="390" as="targetPoint" />
          </mxGeometry>
        </mxCell>
        <mxCell id="zc22BTwSa1uG1xmWoCSC-35" value="Enquanto nada pelo reino, você encontra um arco natural de pedras coberto por musgos brilhantes. Algo na estrutura parece mágico, e você percebe que pequenos peixes estão atravessando o arco e desaparecendo. O que você faz?" style="ellipse;whiteSpace=wrap;html=1;fillColor=#e1d5e7;strokeColor=#9673a6;" vertex="1" parent="1">
          <mxGeometry x="170" y="785" width="240" height="190" as="geometry" />
        </mxCell>
        <mxCell id="zc22BTwSa1uG1xmWoCSC-37" value="Atravessa o arco sem hesitar, movido(a) pela curiosidade. " style="whiteSpace=wrap;html=1;aspect=fixed;" vertex="1" parent="1">
          <mxGeometry x="460" y="760" width="90" height="90" as="geometry" />
        </mxCell>
        <mxCell id="zc22BTwSa1uG1xmWoCSC-38" value="Decide voltar para o reino e conversar com os anciãos sobre o que viu." style="whiteSpace=wrap;html=1;aspect=fixed;" vertex="1" parent="1">
          <mxGeometry x="460" y="950" width="90" height="90" as="geometry" />
        </mxCell>
        <mxCell id="zc22BTwSa1uG1xmWoCSC-39" value="" style="endArrow=classic;html=1;rounded=0;entryX=0.089;entryY=0.797;entryDx=0;entryDy=0;entryPerimeter=0;" edge="1" parent="1" source="zc22BTwSa1uG1xmWoCSC-37" target="zc22BTwSa1uG1xmWoCSC-5">
          <mxGeometry width="50" height="50" relative="1" as="geometry">
            <mxPoint x="640" y="730" as="sourcePoint" />
            <mxPoint x="690" y="680" as="targetPoint" />
            <Array as="points">
              <mxPoint x="200" y="730" />
            </Array>
          </mxGeometry>
        </mxCell>
        <mxCell id="zc22BTwSa1uG1xmWoCSC-40" value="Os anciãos, sem dar explicações, apenas dizem para você ficar longe do arco.&amp;nbsp;&lt;span style=&quot;background-color: initial;&quot;&gt;Um senhor maltrapilho que ali passava diz já ter entrado pelo portal há muito tempo atrás, e perguntou como estava a criatura. Antes de responder, um barulho te distrai, e você o perde de vista.&lt;/span&gt;" style="ellipse;whiteSpace=wrap;html=1;fillColor=#e1d5e7;strokeColor=#9673a6;" vertex="1" parent="1">
          <mxGeometry x="580" y="883.75" width="240" height="222.5" as="geometry" />
        </mxCell>
        <mxCell id="zc22BTwSa1uG1xmWoCSC-41" value="Prefere ouvir o conselho dos anciãos e seguir com sua viagem." style="whiteSpace=wrap;html=1;aspect=fixed;labelBackgroundColor=#6666FF;" vertex="1" parent="1">
          <mxGeometry x="840" y="1050" width="90" height="90" as="geometry" />
        </mxCell>
        <mxCell id="zc22BTwSa1uG1xmWoCSC-42" value="Decide voltar e descobrir o que há através do arco" style="whiteSpace=wrap;html=1;aspect=fixed;labelBackgroundColor=none;" vertex="1" parent="1">
          <mxGeometry x="840" y="870" width="90" height="90" as="geometry" />
        </mxCell>
        <mxCell id="zc22BTwSa1uG1xmWoCSC-43" value="" style="endArrow=classic;html=1;rounded=0;entryX=0.306;entryY=0.955;entryDx=0;entryDy=0;entryPerimeter=0;" edge="1" parent="1" source="zc22BTwSa1uG1xmWoCSC-42" target="zc22BTwSa1uG1xmWoCSC-5">
          <mxGeometry width="50" height="50" relative="1" as="geometry">
            <mxPoint x="600" y="640" as="sourcePoint" />
            <mxPoint x="650" y="590" as="targetPoint" />
            <Array as="points">
              <mxPoint x="640" y="640" />
              <mxPoint x="238" y="640" />
            </Array>
          </mxGeometry>
        </mxCell>
        <mxCell id="zc22BTwSa1uG1xmWoCSC-44" value="" style="endArrow=none;html=1;rounded=0;" edge="1" parent="1" source="zc22BTwSa1uG1xmWoCSC-3" target="zc22BTwSa1uG1xmWoCSC-35">
          <mxGeometry width="50" height="50" relative="1" as="geometry">
            <mxPoint x="380" y="790" as="sourcePoint" />
            <mxPoint x="430" y="740" as="targetPoint" />
          </mxGeometry>
        </mxCell>
        <mxCell id="zc22BTwSa1uG1xmWoCSC-45" value="" style="endArrow=classic;html=1;rounded=0;" edge="1" parent="1" source="zc22BTwSa1uG1xmWoCSC-35" target="zc22BTwSa1uG1xmWoCSC-37">
          <mxGeometry width="50" height="50" relative="1" as="geometry">
            <mxPoint x="380" y="790" as="sourcePoint" />
            <mxPoint x="430" y="740" as="targetPoint" />
          </mxGeometry>
        </mxCell>
        <mxCell id="zc22BTwSa1uG1xmWoCSC-46" value="" style="endArrow=classic;html=1;rounded=0;" edge="1" parent="1" source="zc22BTwSa1uG1xmWoCSC-35" target="zc22BTwSa1uG1xmWoCSC-38">
          <mxGeometry width="50" height="50" relative="1" as="geometry">
            <mxPoint x="380" y="790" as="sourcePoint" />
            <mxPoint x="430" y="740" as="targetPoint" />
          </mxGeometry>
        </mxCell>
        <mxCell id="zc22BTwSa1uG1xmWoCSC-47" value="" style="endArrow=none;html=1;rounded=0;" edge="1" parent="1" source="zc22BTwSa1uG1xmWoCSC-38" target="zc22BTwSa1uG1xmWoCSC-40">
          <mxGeometry width="50" height="50" relative="1" as="geometry">
            <mxPoint x="710" y="970" as="sourcePoint" />
            <mxPoint x="760" y="920" as="targetPoint" />
          </mxGeometry>
        </mxCell>
        <mxCell id="zc22BTwSa1uG1xmWoCSC-48" value="" style="endArrow=classic;html=1;rounded=0;" edge="1" parent="1" source="zc22BTwSa1uG1xmWoCSC-40" target="zc22BTwSa1uG1xmWoCSC-42">
          <mxGeometry width="50" height="50" relative="1" as="geometry">
            <mxPoint x="710" y="970" as="sourcePoint" />
            <mxPoint x="760" y="920" as="targetPoint" />
          </mxGeometry>
        </mxCell>
        <mxCell id="zc22BTwSa1uG1xmWoCSC-49" value="" style="endArrow=classic;html=1;rounded=0;" edge="1" parent="1" source="zc22BTwSa1uG1xmWoCSC-40" target="zc22BTwSa1uG1xmWoCSC-41">
          <mxGeometry width="50" height="50" relative="1" as="geometry">
            <mxPoint x="710" y="970" as="sourcePoint" />
            <mxPoint x="760" y="920" as="targetPoint" />
          </mxGeometry>
        </mxCell>
      </root>
    </mxGraphModel>
  </diagram>
</mxfile>
